# xmcd
#
# Track frame offsets:
#  150
#  15825
#  33385
#  48085
#  64735
#  79688
#  96765
#  112613
#  132773
#  148275
#  166435
#  182523
#
# Disc length: 2657 seconds
#
# Revision: 0
# Processed by: cddbd v1.5.1PL0 Copyright (c) Steve Scherf et al.
# Submitted via: AltoMP3_Maker 3.0
#
DISCID=8c0a5f0c
DTITLE=Selwyn - One Way
DYEAR=1900
DGENRE=
TTITLE0=Satisfactual
TTITLE1=Say Hey Baby
TTITLE2=Boomin'
TTITLE3=Breathe
TTITLE4=Showbiz
TTITLE5=Cutie
TTITLE6=King Of The Jungle
TTITLE7=Just Let Me Know
TTITLE8=It Could Be You
TTITLE9=Lil Miss Thang
TTITLE10=Hero
TTITLE11=Definition Of Music
EXTD=
EXTT0=
EXTT1=
EXTT2=
EXTT3=
EXTT4=
EXTT5=
EXTT6=
EXTT7=
EXTT8=
EXTT9=
EXTT10=
EXTT11=
PLAYORDER=
